<?xml version="1.0" encoding="UTF-8"?>
<svg width="16px" height="16px" viewBox="0 0 16 16" version="1.1" xmlns="http://www.w3.org/2000/svg" xmlns:xlink="http://www.w3.org/1999/xlink">
    <!-- Generator: Sketch 52.2 (67145) - http://www.bohemiancoding.com/sketch -->
    <title>brs-file</title>
    <desc>Created with Sketch.</desc>
    <g id="brs-file" stroke="none" stroke-width="1" fill="none" fill-rule="evenodd">
        <rect id="Rectangle" fill="#65318F" fill-rule="nonzero" x="1" y="9" width="15" height="7"></rect>
        <g id="Group-2" transform="translate(2.000000, 1.000000)">
            <g id="b" transform="translate(0.000000, 9.000000)" fill="#FFFFFF" fill-rule="nonzero">
                <g id="base">
                    <rect id="Rectangle" x="2" y="3" width="1" height="1"></rect>
                    <rect id="Rectangle" x="1" y="2" width="1" height="1"></rect>
                    <rect id="Rectangle" x="1" y="4" width="1" height="1"></rect>
                    <rect id="Rectangle" x="1" y="0" width="1" height="1"></rect>
                    <rect id="Rectangle" x="0" y="0" width="1" height="5"></rect>
                    <rect id="Rectangle" x="2" y="1" width="1" height="1"></rect>
                </g>
                <g id="shades" opacity="0.400000006" transform="translate(2.000000, 0.000000)">
                    <rect id="Rectangle" x="0" y="0" width="1" height="1"></rect>
                    <rect id="Rectangle" x="0" y="4" width="1" height="1"></rect>
                </g>
            </g>
            <g id="r" transform="translate(4.000000, 9.000000)" fill="#FFFFFF" fill-rule="nonzero">
                <g id="base">
                    <rect id="Rectangle" x="2" y="3" width="1" height="1"></rect>
                    <rect id="Rectangle" x="1" y="2" width="1" height="1"></rect>
                    <rect id="Rectangle" x="2" y="4" width="1" height="1"></rect>
                    <rect id="Rectangle" x="1" y="0" width="1" height="1"></rect>
                    <rect id="Rectangle" x="0" y="0" width="1" height="5"></rect>
                    <rect id="Rectangle" x="2" y="1" width="1" height="1"></rect>
                </g>
                <g id="shades" opacity="0.400000006" transform="translate(1.000000, 0.000000)">
                    <rect id="Rectangle" x="1" y="0" width="1" height="1"></rect>
                    <rect id="Rectangle" x="0" y="3" width="1" height="1"></rect>
                </g>
            </g>
            <g id="s" transform="translate(8.000000, 9.000000)" fill="#FFFFFF" fill-rule="nonzero">
                <g id="shades" opacity="0.400000006">
                    <rect id="Rectangle" x="2" y="4" width="1" height="1"></rect>
                    <rect id="Rectangle" x="2" y="2" width="1" height="1"></rect>
                    <rect id="Rectangle" x="0" y="2" width="1" height="1"></rect>
                    <rect id="Rectangle" x="0" y="0" width="1" height="1"></rect>
                </g>
                <g id="base">
                    <rect id="Rectangle" x="0" y="4" width="2" height="1"></rect>
                    <rect id="Rectangle" x="2" y="3" width="1" height="1"></rect>
                    <rect id="Rectangle" x="1" y="2" width="1" height="1"></rect>
                    <rect id="Rectangle" x="0" y="1" width="1" height="1"></rect>
                    <rect id="Rectangle" x="1" y="0" width="2" height="1"></rect>
                </g>
            </g>
            <polygon id="Path" fill="#99A8B0" points="6 0 6 5 1 5 1 7 11 7 11 0"></polygon>
            <polygon id="Path" fill="#99A8B0" points="5 0 5 4 1 4"></polygon>
        </g>
    </g>
</svg>