<?xml version="1.0" encoding="UTF-8" standalone="no"?>
<svg
   xmlns:dc="http://purl.org/dc/elements/1.1/"
   xmlns:cc="http://creativecommons.org/ns#"
   xmlns:rdf="http://www.w3.org/1999/02/22-rdf-syntax-ns#"
   xmlns:svg="http://www.w3.org/2000/svg"
   xmlns="http://www.w3.org/2000/svg"
   xmlns:sodipodi="http://sodipodi.sourceforge.net/DTD/sodipodi-0.dtd"
   xmlns:inkscape="http://www.inkscape.org/namespaces/inkscape"
   width="16"
   height="16"
   version="1.1"
   viewBox="0 0 16 16"
   id="svg3773"
   sodipodi:docname="brs-file.svg"
   inkscape:version="0.92.2 5c3e80d, 2017-08-06"
   inkscape:export-filename="/Users/fridge/Dev/workspace/Kotlin/cutejs-plugin/src/main/resources/icons/jst-file.png"
   inkscape:export-xdpi="96"
   inkscape:export-ydpi="96">
  <metadata
     id="metadata3779">
    <rdf:RDF>
      <cc:Work
         rdf:about="">
        <dc:format>image/svg+xml</dc:format>
        <dc:type
           rdf:resource="http://purl.org/dc/dcmitype/StillImage" />
        <dc:title></dc:title>
      </cc:Work>
    </rdf:RDF>
  </metadata>
  <defs
     id="defs3777" />
  <sodipodi:namedview
     pagecolor="#ffffff"
     bordercolor="#666666"
     borderopacity="1"
     objecttolerance="10"
     gridtolerance="10"
     guidetolerance="10"
     inkscape:pageopacity="0"
     inkscape:pageshadow="2"
     inkscape:window-width="1071"
     inkscape:window-height="667"
     id="namedview3775"
     showgrid="false"
     inkscape:snap-text-baseline="false"
     inkscape:zoom="24.969708"
     inkscape:cx="6.4006909"
     inkscape:cy="5.743912"
     inkscape:window-x="186"
     inkscape:window-y="73"
     inkscape:window-maximized="0"
     inkscape:current-layer="text4588" />
  <g
     opacity=".7"
     id="g3771">
    <rect
       x="1"
       y="9"
       width="15"
       height="7"
       fill="#bc9662"
       opacity="1"
       id="rect3759"
       style="fill:#8800ff;fill-opacity:1" />
    <path
       d="m8 1v5h-5v2h10v-7z"
       fill="#99a8b0"
       opacity="1"
       id="path3761" />
    <path
       d="m7 1v4h-4z"
       fill="#99a8b0"
       opacity="1"
       id="path3763" />
    <g
       aria-label="JST"
       style="font-style:normal;font-variant:normal;font-weight:normal;font-stretch:normal;font-size:40px;line-height:1.25;font-family:monospace;-inkscape-font-specification:monospace;letter-spacing:0px;word-spacing:0px;fill:#241f1f;fill-opacity:1;stroke:none"
       id="text4588">
      <g
         aria-label="BRS"
         style="font-style:normal;font-variant:normal;font-weight:normal;font-stretch:normal;font-size:5.33333349px;line-height:1.25;font-family:'Hiragino Kaku Gothic Std';-inkscape-font-specification:'Hiragino Kaku Gothic Std';letter-spacing:-0.44px;word-spacing:0px;fill:#000000;fill-opacity:1;stroke:none"
         id="text914">
        <path
           d="m 2.7715656,12.741531 v 1.424479 h 0.8437501 q 0.4244791,0 0.6276041,-0.174479 0.2057292,-0.177083 0.2057292,-0.539062 0,-0.364584 -0.2057292,-0.536459 -0.203125,-0.174479 -0.6276041,-0.174479 z m 0,-1.598958 v 1.171875 h 0.7786459 q 0.3854167,0 0.5729167,-0.14323 0.1901041,-0.145833 0.1901041,-0.442708 0,-0.294271 -0.1901041,-0.440104 -0.1875,-0.145833 -0.5729167,-0.145833 z M 2.2455239,10.710281 H 3.589274 q 0.6015625,0 0.9270833,0.25 0.3255209,0.25 0.3255209,0.710937 0,0.356771 -0.1666667,0.567709 -0.1666667,0.210937 -0.4895833,0.263021 0.3880208,0.08333 0.6015625,0.348958 0.2161458,0.263021 0.2161458,0.658854 0,0.520834 -0.3541666,0.804688 -0.3541667,0.283854 -1.0078126,0.283854 H 2.2455239 Z"
           style="font-style:normal;font-variant:normal;font-weight:normal;font-stretch:normal;font-family:sans-serif;-inkscape-font-specification:sans-serif;letter-spacing:-0.44px"
           id="path916" />
        <path
           d="m 7.3055239,12.775385 q 0.1692709,0.05729 0.3281251,0.244792 0.1614583,0.1875 0.3229166,0.515625 l 0.5338542,1.0625 H 7.9253156 L 7.4279198,13.600906 Q 7.2352114,13.210281 7.0529198,13.082677 6.8732323,12.955073 6.5607323,12.955073 H 5.9878156 v 1.643229 H 5.4617739 v -3.888021 h 1.1875 q 0.6666667,0 0.9947917,0.278646 0.328125,0.278646 0.328125,0.841146 0,0.367187 -0.171875,0.609375 -0.1692708,0.242187 -0.4947917,0.335937 z M 5.9878156,11.142573 v 1.380208 h 0.6614583 q 0.3802084,0 0.5729167,-0.174479 0.1953125,-0.177084 0.1953125,-0.518229 0,-0.341146 -0.1953125,-0.513021 -0.1927083,-0.174479 -0.5729167,-0.174479 z"
           style="font-style:normal;font-variant:normal;font-weight:normal;font-stretch:normal;font-family:sans-serif;-inkscape-font-specification:sans-serif;letter-spacing:-0.44px"
           id="path918" />
        <path
           d="m 11.060837,10.837885 v 0.513021 q -0.29948,-0.143229 -0.565105,-0.213542 -0.265625,-0.07031 -0.5130205,-0.07031 -0.4296875,0 -0.6640625,0.166666 -0.2317708,0.166667 -0.2317708,0.473959 0,0.257812 0.1536458,0.390625 0.15625,0.130208 0.5885417,0.210937 l 0.3177083,0.0651 q 0.588542,0.11198 0.867188,0.395834 0.28125,0.28125 0.28125,0.755208 0,0.565104 -0.380209,0.856771 -0.377604,0.291667 -1.1093748,0.291667 -0.2760417,0 -0.5885417,-0.0625 -0.3098958,-0.0625 -0.6432292,-0.184896 V 13.88476 q 0.3203125,0.179688 0.6276042,0.270834 0.3072917,0.09114 0.6041667,0.09114 0.4505208,0 0.6953128,-0.177083 0.244791,-0.177083 0.244791,-0.505208 0,-0.286459 -0.177083,-0.447917 -0.174479,-0.161458 -0.5755208,-0.242187 l -0.3203125,-0.0625 Q 9.084274,12.694656 8.8212532,12.444656 q -0.2630209,-0.25 -0.2630209,-0.695313 0,-0.515625 0.3619792,-0.8125 0.3645833,-0.296875 1.0026042,-0.296875 0.2734373,0 0.5572913,0.04948 0.283855,0.04948 0.58073,0.148437 z"
           style="font-style:normal;font-variant:normal;font-weight:normal;font-stretch:normal;font-family:sans-serif;-inkscape-font-specification:sans-serif;letter-spacing:-0.44px"
           id="path920" />
      </g>
    </g>
  </g>
</svg>
